<svg width="128" height="118" viewBox="0 0 128 118" fill="none" xmlns="http://www.w3.org/2000/svg">
<path d="M126.697 70.0225L91.2109 114.77L58.0596 49.7665L93.5452 5L126.697 70.0225Z" stroke="white" stroke-width="1.18625" stroke-miterlimit="10" stroke-dasharray="10.74 10.74"/>
<path d="M34.1513 117.218L91.2107 114.771L58.0594 49.767L1 52.2143L34.1513 117.218Z" stroke="white" stroke-width="1.18625" stroke-miterlimit="10" stroke-dasharray="10.74 10.74"/>
<path d="M126.753 70.1544L69.7687 72.7147L34.2266 117.349L91.2107 114.77" stroke="white" stroke-width="1.18625" stroke-miterlimit="10" stroke-dasharray="10.74 10.74"/>
<path d="M58.0029 49.6347L93.5451 5L36.5421 7.57905L1 52.2138" stroke="white" stroke-width="1.18625" stroke-miterlimit="10" stroke-dasharray="10.74 10.74"/>
<path d="M43.5728 29.3066L67 0L29.4272 1.69338L6 31" fill="#A0F8A2"/>
<path d="M36.542 7.57928L57.984 49.6349" stroke="white" stroke-width="1.18625" stroke-miterlimit="10" stroke-dasharray="10.74 10.74"/>
<path d="M120 68.1269L91.5647 104L65 51.8882L93.4353 16L120 68.1269Z" fill="#6ED270"/>
</svg>
