<svg width="950" height="686" viewBox="0 0 950 686" fill="none" xmlns="http://www.w3.org/2000/svg">
<path d="M470.719 121.541C470.467 122.53 461.387 151.516 490.372 155.436C490.624 153.961 493.321 121.541 493.321 121.541H470.719Z" fill="white" stroke="#201046" stroke-width="2.05146" stroke-miterlimit="10"/>
<path d="M602.395 109.549C602.485 108.721 612.788 69.4148 614.982 65.0813C617.175 60.7479 600.003 2.52504 521.48 26.6017C521.48 26.6017 505.099 26.6018 494.185 22.0705C483.27 17.5393 475.664 25.1453 482.047 35.844C488.431 46.5428 506.538 57.6731 506.538 57.6731L602.395 109.549Z" fill="#201046"/>
<path d="M561.452 23.2393C560.499 23.7248 548.865 32.086 547.499 57.4034L523.943 54.8321C523.943 54.8321 524.663 31.8343 537.807 23.2213L561.452 23.2393Z" fill="white" stroke="#201046" stroke-width="2.05146" stroke-miterlimit="10"/>
<path d="M715.927 415.91C718.678 438.836 719.523 461.258 716.916 480.48C707.926 548.808 641.521 525.649 630.895 499.738C620.268 473.827 619.602 467.192 619.602 467.192C619.602 467.192 605.415 567.886 604.66 568.48" fill="white"/>
<path d="M715.927 415.91C718.678 438.836 719.523 461.258 716.916 480.48C707.926 548.808 641.521 525.649 630.895 499.738C620.268 473.827 619.602 467.192 619.602 467.192C619.602 467.192 605.415 567.886 604.66 568.48" stroke="#201046" stroke-width="2.05146" stroke-miterlimit="10"/>
<path d="M301.445 455.918C278.196 457.249 255.054 440.436 230.923 380.092C206.793 319.747 204.132 317.428 223.066 304.805C242 292.182 248.635 289.521 248.635 289.521C249.965 289.845 262.732 290.852 267.893 298.512C273.053 306.172 288.157 338.07 296.123 348.337C296.123 348.337 341.291 318.776 365.53 289.557C389.768 260.338 420.516 239.695 434.272 237.412C461.243 232.827 519.628 247.769 511.321 188L597.63 123.034C597.63 123.034 577.707 193.034 587.327 219.916C600.273 256.094 661.391 245.791 677.322 274.687C687.086 292.38 703.071 339.976 711.954 389.927" fill="white"/>
<path d="M301.445 455.918C278.196 457.249 255.054 440.436 230.923 380.092C206.793 319.747 204.132 317.428 223.066 304.805C242 292.182 248.635 289.521 248.635 289.521C249.965 289.845 262.732 290.852 267.893 298.512C273.053 306.172 288.157 338.07 296.123 348.337C296.123 348.337 341.291 318.776 365.53 289.557C389.768 260.338 420.516 239.695 434.272 237.412C461.243 232.827 519.628 247.769 511.321 188L597.63 123.034C597.63 123.034 577.707 193.034 587.327 219.916C600.273 256.094 661.391 245.791 677.322 274.687C687.086 292.38 703.071 339.976 711.954 389.927" stroke="#201046" stroke-width="2.05146" stroke-miterlimit="10"/>
<path d="M374.358 518.564C380.274 488.32 390.272 438.854 393.436 417.726C393.436 417.726 344.312 444.069 315.057 453.023" fill="white"/>
<path d="M374.358 518.564C380.274 488.32 390.272 438.854 393.436 417.726C393.436 417.726 344.312 444.069 315.057 453.023" stroke="#201046" stroke-width="2.05146" stroke-miterlimit="10"/>
<path d="M243.385 237.322C241.443 228.781 245.506 217.219 252.789 218.1C257.913 218.711 256.277 230.813 260.521 248.182C264.944 266.164 265.124 267.962 263.47 273.788C261.815 279.613 253.706 300.507 253.706 300.507C253.706 300.507 236.21 311.188 220.728 311.296C220.004 309.192 218.821 307.276 217.267 305.684C215.712 304.092 213.824 302.864 211.738 302.09C204.743 299.698 189.621 284.774 185.198 275.118C185.198 275.118 184.82 283.407 177.79 281.016C170.759 278.624 167.001 254.943 173.726 254.764C173.726 254.764 171.316 238.311 182.968 238.67C182.968 238.67 183.148 217.219 196.832 217.093C196.832 217.093 171.874 186.22 177.052 178.452C182.231 170.684 206.631 202.295 213.662 209.703C220.693 217.111 246.477 250.916 243.385 237.322Z" fill="white" stroke="#201046" stroke-width="2.05146" stroke-miterlimit="10"/>
<path d="M243.385 237.322C243.385 237.322 244.788 246.313 245.183 247.787C245.183 247.787 224.181 246.96 221.412 271.162" stroke="#201046" stroke-width="2.05146" stroke-miterlimit="10"/>
<path d="M196.813 217.183L207.368 231.28" stroke="#201046" stroke-width="2.05146" stroke-miterlimit="10"/>
<path d="M173.689 254.908C173.689 254.908 181.673 280.656 194.817 278.894C203.376 277.762 198.809 265.211 198.809 265.211" stroke="#201046" stroke-width="2.05146" stroke-miterlimit="10"/>
<path d="M182.932 238.832C182.932 238.832 179.21 261.632 203.628 266.469C209.795 267.692 212.097 261.075 207.997 255.896C200.032 245.809 195.015 235.632 211.594 228.295" stroke="#201046" stroke-width="2.05146" stroke-miterlimit="10"/>
<path d="M296.123 348.301C296.123 348.301 314.949 376.118 324.623 386.727" stroke="#201046" stroke-width="2.05146" stroke-miterlimit="10"/>
<path d="M393.436 417.726L417.926 293.117" stroke="#201046" stroke-width="2.05146" stroke-miterlimit="10"/>
<path d="M503.229 224.268C503.229 224.268 533.221 259.601 589.34 224.268" stroke="#201046" stroke-width="2.05146" stroke-miterlimit="10"/>
<path d="M536.189 294.753C542.123 285.493 563.826 309.138 569.868 309.893C575.91 310.649 577.061 301.191 577.438 272.133C577.816 243.076 575.173 214.594 583.12 212.796C591.068 210.997 596.049 275.136 596.049 275.136C596.049 275.136 603.996 264.168 605.507 256.597C607.017 249.027 604.248 213.731 610.056 212.652C619.046 210.979 620.647 248.614 620.647 248.614C620.647 248.614 624.009 240.864 629.637 246.816C635.265 252.768 635.032 280.315 635.032 282.544C635.032 284.774 626.203 306.046 627.839 306.441C629.475 306.837 642.098 268.915 645.497 268.501C648.895 268.087 653.121 266.397 646.504 301.227C644.13 313.67 648.158 341.432 649.237 347.402C650.316 353.372 656.285 366.318 656.285 366.318C656.285 366.318 646.611 400.86 602.342 386.097L594.125 358.946C594.125 358.946 569.401 345.64 566.488 335.75C560.896 316.96 529.519 305.29 536.189 294.753Z" fill="white" stroke="#201046" stroke-width="2.05146" stroke-miterlimit="10"/>
<path d="M620.43 245.899C620.43 245.899 619.692 268.735 619.692 271.414C619.692 274.093 609.623 288.352 609.623 288.352" stroke="#201046" stroke-width="2.05146" stroke-miterlimit="10"/>
<path d="M619.603 467.21C619.603 467.21 598.421 396.85 595.742 389.891C593.062 382.933 599.661 377.305 599.661 377.305" stroke="#201046" stroke-width="2.05146" stroke-miterlimit="10"/>
<path d="M652.76 358.353C654.722 358.758 656.585 359.546 658.242 360.672C659.898 361.799 661.317 363.241 662.416 364.916C665.616 370.31 695.986 437.793 705.247 450.272" stroke="#201046" stroke-width="2.05146" stroke-miterlimit="10"/>
<path d="M485.212 112.893C484.475 135.189 485.212 193.394 526.569 192.351C567.925 191.308 592.146 137.887 592.38 137.149C592.613 136.412 602.935 97.2134 602.449 96.4762C601.964 95.7389 485.212 112.893 485.212 112.893Z" fill="white" stroke="#201046" stroke-width="2.05146" stroke-miterlimit="10"/>
<path d="M610.809 102.356C610.306 101.942 580.241 79.9154 580.241 79.9154C580.733 89.7081 580.044 99.5243 578.191 109.153C579.63 110.178 596.964 119.51 596.964 119.51L610.809 102.356Z" fill="white" stroke="#201046" stroke-width="2.05146" stroke-miterlimit="10"/>
<path d="M615.036 154.393C608.706 158.169 601.819 158.925 597.054 155.454C571.881 137.473 604.966 84.8965 623.019 102.572C625.441 105.148 627.28 108.214 628.414 111.562C636.02 130.964 626.454 147.597 615.036 154.393Z" fill="white" stroke="#201046" stroke-width="2.05146" stroke-miterlimit="10"/>
<path d="M608.293 149.107C596.497 141.915 600.741 108.757 619.909 103.237" stroke="#201046" stroke-width="2.05146" stroke-miterlimit="10"/>
<path d="M615.826 120.139C614.352 131.306 616.743 135.243 621.904 132.726C627.065 130.209 630.229 122.782 630.571 108.218C630.912 93.6531 629.096 26.3139 575.099 18.6719C534.75 12.9539 521.479 26.6016 521.479 26.6016C521.479 26.6016 531.063 29.7303 546.347 27.6984C561.631 25.6665 571.215 23.0953 583.568 30.6473C595.921 38.1994 622.659 68.7313 615.826 120.139Z" fill="white" stroke="#201046" stroke-width="2.05146" stroke-miterlimit="10"/>
<path d="M556.183 47.8909C575.531 55.7846 588.675 71.2663 590.833 92.5739C592.991 113.882 582.472 131.125 563.681 131.755C544.891 132.384 530.704 121.631 501.557 129.957C472.409 138.282 440.637 112.911 440.637 112.911L470.18 62.2218L556.183 47.8909Z" fill="url(#paint0_linear_57_188)"/>
<path d="M440.547 112.874C447.074 119.977 557.694 118.125 565.659 101.277C573.625 84.4283 576.826 45.5352 543.74 42.856C517.973 40.7163 471.133 42.4964 448.189 47.8727C433.804 51.2532 427.762 98.975 440.547 112.874Z" fill="white" stroke="#201046" stroke-width="2.05146" stroke-miterlimit="10"/>
<path d="M468.094 52.7102C463.85 53.2676 460.003 53.8969 456.748 54.6162C444.647 57.2774 439.558 94.786 450.311 105.736C453.547 109.027 487.316 109.872 515.834 107.283" fill="white"/>
<path d="M468.094 52.7102C463.85 53.2676 460.003 53.8969 456.748 54.6162C444.647 57.2774 439.558 94.786 450.311 105.736C453.547 109.027 487.316 109.872 515.834 107.283" stroke="#201046" stroke-width="2.05146" stroke-miterlimit="10"/>
<path d="M536.333 104.549C546.492 102.625 553.901 100 555.627 96.6016C562.334 83.3495 565.013 52.8176 537.178 50.6599C521.062 49.6931 504.901 49.7412 488.791 50.8037" fill="white"/>
<path d="M536.333 104.549C546.492 102.625 553.901 100 555.627 96.6016C562.334 83.3495 565.013 52.8176 537.178 50.6599C521.062 49.6931 504.901 49.7412 488.791 50.8037" stroke="#201046" stroke-width="2.05146" stroke-miterlimit="10"/>
<path d="M511.897 127.619L508.301 139.666L517.201 142.237" stroke="#201046" stroke-width="2.05146" stroke-miterlimit="10"/>
<path d="M511.268 152.308C511.268 152.308 529.626 153.512 538.527 149.053C537.664 159.554 512.742 169.21 511.268 152.308Z" stroke="#201046" stroke-width="2.05146" stroke-miterlimit="10"/>
<path d="M573.266 308.815C573.679 308.311 601.478 302.144 609.623 324.998" stroke="#201046" stroke-width="2.05146" stroke-miterlimit="10"/>
<line x1="0.926552" y1="503.273" x2="949.927" y2="349.704" stroke="white" stroke-width="0.919574"/>
<path d="M538.49 662.813L812.523 278.891" stroke="white" stroke-width="0.919574"/>
<path d="M84.0849 408.214L33.4609 401.778L68.7912 438.597L119.415 445.032L84.0849 408.214Z" stroke="white" stroke-width="1.18625" stroke-miterlimit="10" stroke-dasharray="8.32 8.32"/>
<path d="M119.415 445.032L101.13 374.343L33.4609 401.778" stroke="white" stroke-width="1.18625" stroke-miterlimit="10" stroke-dasharray="8.32 8.32"/>
<path d="M101.13 374.343L68.791 438.597" stroke="white" stroke-width="1.18625" stroke-miterlimit="10" stroke-dasharray="8.32 8.32"/>
<path d="M308.193 66.2207L272.707 110.968L239.556 45.9647L275.041 1.19822L308.193 66.2207Z" stroke="white" stroke-width="1.18625" stroke-miterlimit="10" stroke-dasharray="10.74 10.74"/>
<path d="M215.647 113.416L272.707 110.969L239.555 45.9653L182.496 48.4125L215.647 113.416Z" stroke="white" stroke-width="1.18625" stroke-miterlimit="10" stroke-dasharray="10.74 10.74"/>
<path d="M308.249 66.3526L251.265 68.9129L215.723 113.548L272.707 110.969" stroke="white" stroke-width="1.18625" stroke-miterlimit="10" stroke-dasharray="10.74 10.74"/>
<path d="M239.499 45.8329L275.041 1.19821L218.038 3.77726L182.496 48.412" stroke="white" stroke-width="1.18625" stroke-miterlimit="10" stroke-dasharray="10.74 10.74"/>
<path d="M218.037 3.7775L239.479 45.8332" stroke="white" stroke-width="1.18625" stroke-miterlimit="10" stroke-dasharray="10.74 10.74"/>
<circle cx="796" cy="112" r="32" stroke="white" stroke-width="1.18625" stroke-miterlimit="10" stroke-dasharray="8.32 8.32"/>
<circle cx="812" cy="128" r="24" stroke="white" stroke-width="1.18625" stroke-miterlimit="10" stroke-dasharray="8.32 8.32"/>
<defs>
<linearGradient id="paint0_linear_57_188" x1="440.637" y1="82.4553" x2="591.111" y2="82.4553" gradientUnits="userSpaceOnUse">
<stop stop-color="#282E74"/>
<stop offset="1" stop-color="#57B9A3"/>
</linearGradient>
</defs>
</svg>
